<?xml version="1.0" encoding="utf-8"?>
<svg width="302.11" height="70.313" viewBox="0 0 302.11 70.313" xmlns="http://www.w3.org/2000/svg" xmlns:bx="https://boxy-svg.com">
  <defs>
    <filter id="drop-shadow-filter-0" x="-500%" y="-500%" width="1000%" height="1000%" bx:preset="drop-shadow 1 6 4 0 0.37 rgba(203,53,33,1)">
      <feGaussianBlur in="SourceAlpha" stdDeviation="0"/>
      <feOffset dx="6" dy="4"/>
      <feComponentTransfer result="offsetblur">
        <feFuncA id="spread-ctrl" type="linear" slope="0.74"/>
      </feComponentTransfer>
      <feFlood flood-color="rgba(203,53,33,1)"/>
      <feComposite in2="offsetblur" operator="in"/>
      <feMerge>
        <feMergeNode/>
        <feMergeNode in="SourceGraphic"/>
      </feMerge>
    </filter>
  </defs>
  <g id="svgGroup" stroke-linecap="round" fill-rule="evenodd" font-size="9pt" stroke="#000" stroke-width="0.25mm" fill="black" style="stroke:#000;stroke-width:0.25mm;fill:black">
    <path d="M 249.627 47.733 L 249.627 45.342 L 263.509 45.342 C 265.851 45.348 268.169 44.867 270.316 43.931 C 272.486 42.99 274.373 41.717 275.978 40.112 C 277.31 38.769 278.413 37.219 279.244 35.52 C 279.448 35.109 279.638 34.692 279.814 34.268 C 280.772 31.946 281.257 29.457 281.242 26.945 C 281.246 23.863 280.408 20.836 278.817 18.195 C 277.235 15.494 274.989 13.242 272.293 11.652 C 269.644 10.049 266.605 9.205 263.508 9.212 L 233.422 9.212 L 233.422 61.813 L 231.031 61.813 L 231.031 6.821 L 263.509 6.821 C 267.021 6.813 270.468 7.772 273.471 9.594 C 276.528 11.4 279.077 13.954 280.876 17.016 C 282.714 20.116 283.632 23.425 283.632 26.945 C 283.643 28.922 283.407 30.893 282.932 32.812 C 282.69 33.771 282.38 34.713 282.005 35.629 C 281.43 37.053 280.696 38.408 279.818 39.667 C 279.172 40.588 278.436 41.444 277.622 42.22 C 275.769 43.979 273.593 45.36 271.213 46.289 C 268.76 47.255 266.145 47.745 263.508 47.733 L 249.627 47.733 Z M 249.627 42.952 L 249.627 40.56 L 263.509 40.56 C 265.811 40.56 267.942 40.001 269.902 38.884 C 271.697 37.851 273.208 36.39 274.301 34.63 C 274.421 34.439 274.538 34.247 274.65 34.052 C 275.714 32.18 276.324 30.086 276.431 27.936 C 276.451 27.606 276.46 27.276 276.46 26.945 C 276.467 23.824 275.284 20.818 273.15 18.54 C 272.959 18.326 272.761 18.117 272.558 17.913 C 269.956 15.3 266.94 13.994 263.509 13.994 L 238.204 13.994 L 238.204 61.813 L 235.813 61.813 L 235.813 11.603 L 263.509 11.603 C 266.187 11.603 268.712 12.312 271.08 13.729 C 273.449 15.145 275.337 17.038 276.742 19.407 C 278.148 21.775 278.85 24.289 278.85 26.945 C 278.868 29.109 278.462 31.254 277.655 33.262 C 277.388 33.916 277.077 34.551 276.725 35.164 C 275.639 37.098 274.151 38.775 272.362 40.085 C 271.954 40.381 271.532 40.655 271.097 40.908 C 268.761 42.27 266.232 42.952 263.509 42.952 L 249.627 42.952 Z M 29.294 6.821 L 42.61 57.098 L 55.927 6.821 L 58.417 6.821 L 43.839 61.813 L 41.348 61.813 L 26.803 6.821 L 29.294 6.821 Z M 249.627 38.17 L 249.627 35.778 L 263.509 35.778 C 265.789 35.778 267.721 35.009 269.304 33.47 C 270.299 32.49 271 31.252 271.33 29.894 C 271.533 29.116 271.647 28.265 271.672 27.344 C 271.676 27.211 271.678 27.078 271.678 26.945 C 271.677 25.184 271.062 23.479 269.938 22.123 C 269.703 21.83 269.452 21.549 269.187 21.283 C 268.536 20.615 267.785 20.052 266.962 19.614 C 265.896 19.057 264.711 18.769 263.508 18.776 L 242.986 18.776 L 242.986 61.813 L 240.595 61.813 L 240.595 16.385 L 263.509 16.385 C 266.042 16.379 268.48 17.341 270.325 19.076 C 270.516 19.247 270.7 19.424 270.881 19.606 C 271.759 20.476 272.492 21.48 273.054 22.582 C 273.73 23.936 274.078 25.431 274.068 26.945 C 274.068 30.332 273.039 33.05 270.981 35.097 C 269.052 37.072 266.405 38.181 263.645 38.169 C 263.6 38.169 263.555 38.17 263.509 38.17 L 249.627 38.17 Z M 64.593 39.531 L 58.715 61.813 L 56.225 61.813 L 70.771 6.888 L 70.737 6.821 L 73.26 6.821 L 73.26 6.888 L 79.737 29.204 L 85.681 6.821 L 88.172 6.821 L 73.593 61.813 L 71.102 61.813 L 64.593 39.531 Z M 102.816 34.317 C 102.803 38.307 103.611 42.258 105.19 45.923 C 105.288 46.153 105.39 46.382 105.493 46.608 C 106.968 49.899 109.025 52.896 111.566 55.454 C 111.982 55.871 112.412 56.275 112.854 56.665 C 115.308 58.816 118.091 60.56 121.097 61.83 C 124.762 63.409 128.712 64.217 132.703 64.204 C 136.693 64.217 140.644 63.409 144.309 61.83 C 144.539 61.732 144.767 61.631 144.994 61.527 C 148.285 60.052 151.281 57.995 153.84 55.454 C 154.256 55.038 154.66 54.608 155.051 54.166 C 157.202 51.713 158.945 48.93 160.216 45.923 C 161.795 42.258 162.603 38.307 162.59 34.317 C 162.603 30.326 161.795 26.376 160.216 22.711 C 160.117 22.481 160.016 22.253 159.913 22.026 C 158.438 18.735 156.381 15.739 153.84 13.18 C 153.423 12.764 152.994 12.36 152.552 11.969 C 150.099 9.819 147.316 8.075 144.309 6.804 C 140.644 5.225 136.693 4.417 132.703 4.43 C 128.712 4.417 124.762 5.226 121.097 6.804 C 120.867 6.903 120.639 7.004 120.412 7.107 C 117.121 8.582 114.125 10.639 111.566 13.18 C 111.15 13.597 110.745 14.026 110.355 14.468 C 108.204 16.923 106.461 19.705 105.19 22.711 C 103.611 26.376 102.803 30.326 102.816 34.317 Z M 166.31 34.317 C 166.297 38.307 167.105 42.258 168.684 45.923 C 168.782 46.153 168.883 46.382 168.986 46.608 C 170.461 49.899 172.519 52.896 175.06 55.454 C 175.476 55.871 175.905 56.275 176.347 56.665 C 178.801 58.816 181.584 60.56 184.59 61.83 C 188.255 63.409 192.206 64.217 196.196 64.204 C 200.187 64.217 204.137 63.409 207.802 61.83 C 208.032 61.732 208.261 61.631 208.487 61.527 C 211.778 60.052 214.774 57.995 217.333 55.454 C 217.75 55.038 218.153 54.608 218.544 54.166 C 220.695 51.713 222.438 48.93 223.709 45.923 C 225.288 42.258 226.096 38.307 226.083 34.317 C 226.096 30.326 225.288 26.376 223.709 22.711 C 223.61 22.481 223.509 22.253 223.406 22.026 C 221.931 18.735 219.874 15.739 217.333 13.18 C 216.916 12.764 216.487 12.36 216.045 11.969 C 213.592 9.819 210.809 8.075 207.802 6.804 C 204.137 5.226 200.187 4.417 196.196 4.43 C 192.206 4.417 188.255 5.225 184.59 6.804 C 184.36 6.903 184.132 7.004 183.905 7.107 C 180.614 8.582 177.618 10.64 175.06 13.18 C 174.643 13.597 174.239 14.026 173.848 14.468 C 171.698 16.923 169.954 19.705 168.684 22.711 C 167.105 26.376 166.297 30.326 166.31 34.317 Z M 247.769 23.557 L 247.769 61.813 L 245.377 61.813 L 245.377 21.167 L 263.509 21.167 C 265.019 21.152 266.47 21.757 267.523 22.84 C 267.541 22.858 267.559 22.876 267.577 22.894 C 268.13 23.439 268.57 24.087 268.873 24.802 C 269.152 25.481 269.292 26.21 269.287 26.945 C 269.297 27.763 269.21 28.579 269.03 29.376 C 268.389 32.051 266.549 33.388 263.509 33.388 L 249.627 33.388 L 249.627 30.997 L 263.509 30.997 C 264.449 30.997 265.207 30.762 265.783 30.295 C 265.858 30.233 265.93 30.168 265.999 30.099 C 266.597 29.502 266.896 28.45 266.896 26.945 C 266.901 26.515 266.828 26.089 266.681 25.685 C 266.515 25.245 266.254 24.847 265.917 24.521 C 265.282 23.888 264.416 23.54 263.52 23.557 C 263.516 23.557 263.513 23.557 263.509 23.557 L 247.769 23.557 Z M 107.382 23.641 C 105.937 27.015 105.197 30.648 105.207 34.317 C 105.207 38.037 105.932 41.595 107.382 44.993 C 108.545 47.764 110.148 50.33 112.128 52.591 C 112.487 52.998 112.86 53.393 113.243 53.777 C 115.6 56.117 118.362 58.009 121.395 59.361 C 121.604 59.455 121.815 59.548 122.027 59.638 C 125.401 61.083 129.033 61.823 132.703 61.813 C 136.422 61.813 139.981 61.089 143.379 59.638 C 146.15 58.475 148.716 56.873 150.976 54.892 C 151.383 54.533 151.779 54.161 152.163 53.777 C 154.502 51.42 156.395 48.658 157.746 45.625 C 157.841 45.416 157.933 45.205 158.023 44.993 C 159.468 41.62 160.209 37.987 160.199 34.317 C 160.199 30.598 159.474 27.039 158.023 23.641 C 156.861 20.87 155.259 18.305 153.278 16.043 C 152.919 15.637 152.547 15.241 152.163 14.857 C 149.806 12.518 147.044 10.626 144.011 9.274 C 143.802 9.179 143.59 9.086 143.379 8.996 C 140.006 7.551 136.373 6.811 132.703 6.821 C 128.983 6.821 125.425 7.547 122.027 8.996 C 119.256 10.159 116.69 11.762 114.429 13.742 C 114.022 14.102 113.627 14.474 113.243 14.857 C 110.904 17.214 109.012 19.976 107.66 23.01 C 107.565 23.218 107.472 23.43 107.382 23.641 Z M 170.876 23.641 C 169.431 27.015 168.69 30.647 168.7 34.317 C 168.7 38.037 169.426 41.595 170.876 44.993 C 172.039 47.764 173.642 50.33 175.622 52.591 C 175.981 52.998 176.353 53.393 176.736 53.777 C 179.093 56.117 181.855 58.009 184.888 59.361 C 185.097 59.455 185.308 59.548 185.52 59.638 C 188.894 61.083 192.527 61.824 196.196 61.813 C 199.916 61.813 203.474 61.089 206.872 59.638 C 209.643 58.475 212.209 56.873 214.47 54.892 C 214.877 54.533 215.272 54.161 215.656 53.777 C 217.995 51.42 219.888 48.658 221.24 45.625 C 221.334 45.416 221.427 45.205 221.517 44.993 C 222.962 41.62 223.703 37.987 223.693 34.317 C 223.693 30.598 222.968 27.039 221.517 23.641 C 220.354 20.87 218.752 18.305 216.771 16.043 C 216.412 15.637 216.04 15.241 215.656 14.857 C 213.299 12.518 210.537 10.626 207.504 9.274 C 207.295 9.179 207.084 9.086 206.872 8.996 C 203.499 7.551 199.867 6.811 196.196 6.821 C 192.477 6.821 188.918 7.547 185.52 8.996 C 182.749 10.159 180.184 11.762 177.923 13.742 C 177.516 14.102 177.121 14.474 176.736 14.857 C 174.397 17.214 172.505 19.976 171.153 23.01 C 171.058 23.219 170.966 23.43 170.876 23.641 Z M 107.598 34.317 C 107.567 38.739 108.731 43.088 110.968 46.903 C 113.216 50.755 116.265 53.804 120.118 56.052 C 123.932 58.289 128.28 59.453 132.703 59.422 C 137.125 59.453 141.474 58.289 145.289 56.052 C 149.141 53.804 152.19 50.755 154.438 46.903 C 156.675 43.088 157.839 38.739 157.808 34.317 C 157.839 29.894 156.675 25.546 154.438 21.732 C 152.19 17.879 149.141 14.83 145.289 12.583 C 141.474 10.345 137.125 9.181 132.703 9.212 C 128.28 9.181 123.932 10.346 120.118 12.583 C 116.265 14.83 113.216 17.879 110.968 21.732 C 108.731 25.546 107.567 29.894 107.598 34.317 Z M 171.092 34.317 C 171.06 38.739 172.225 43.088 174.462 46.903 C 176.709 50.755 179.758 53.804 183.611 56.052 C 187.425 58.289 191.774 59.453 196.196 59.422 C 200.619 59.453 204.967 58.289 208.783 56.052 C 212.634 53.804 215.683 50.755 217.931 46.903 C 220.168 43.088 221.332 38.739 221.301 34.317 C 221.332 29.894 220.168 25.546 217.931 21.732 C 215.683 17.879 212.634 14.83 208.783 12.583 C 204.967 10.345 200.619 9.181 196.196 9.212 C 191.774 9.181 187.425 10.345 183.611 12.583 C 179.758 14.83 176.709 17.879 174.462 21.732 C 172.225 25.546 171.061 29.895 171.092 34.317 Z M 111.782 25.484 C 110.587 28.295 109.989 31.24 109.989 34.317 C 109.989 37.395 110.587 40.339 111.782 43.15 C 112.977 45.962 114.588 48.38 116.614 50.406 C 118.543 52.321 120.802 53.87 123.282 54.98 C 123.477 55.069 123.673 55.154 123.87 55.238 C 126.681 56.434 129.626 57.031 132.703 57.031 C 135.78 57.031 138.725 56.434 141.536 55.238 C 144.348 54.042 146.766 52.431 148.792 50.406 C 150.706 48.478 152.256 46.218 153.365 43.738 C 153.454 43.543 153.54 43.347 153.624 43.15 C 154.819 40.339 155.417 37.395 155.417 34.317 C 155.417 31.24 154.819 28.295 153.624 25.484 C 152.428 22.673 150.817 20.254 148.792 18.228 C 146.864 16.314 144.604 14.764 142.124 13.655 C 141.929 13.566 141.733 13.48 141.536 13.396 C 138.725 12.201 135.78 11.603 132.703 11.603 C 129.626 11.603 126.681 12.201 123.87 13.396 C 121.059 14.591 118.64 16.202 116.614 18.228 C 114.7 20.157 113.15 22.416 112.041 24.897 C 111.951 25.091 111.866 25.287 111.782 25.484 Z M 175.275 25.484 C 174.08 28.295 173.482 31.24 173.482 34.317 C 173.482 37.395 174.08 40.339 175.275 43.15 C 176.471 45.962 178.082 48.38 180.107 50.406 C 182.036 52.321 184.295 53.87 186.776 54.98 C 186.97 55.069 187.166 55.154 187.363 55.238 C 190.174 56.434 193.119 57.031 196.196 57.031 C 199.274 57.031 202.218 56.434 205.029 55.238 C 207.841 54.042 210.26 52.431 212.286 50.406 C 214.2 48.478 215.75 46.218 216.859 43.738 C 216.947 43.543 217.033 43.347 217.117 43.15 C 218.313 40.339 218.911 37.395 218.911 34.317 C 218.911 31.24 218.313 28.295 217.117 25.484 C 215.922 22.673 214.311 20.254 212.286 18.228 C 210.358 16.314 208.097 14.764 205.617 13.655 C 205.422 13.566 205.226 13.48 205.029 13.396 C 202.218 12.201 199.274 11.603 196.196 11.603 C 193.119 11.603 190.174 12.201 187.363 13.396 C 184.552 14.591 182.133 16.202 180.107 18.228 C 178.193 20.157 176.643 22.416 175.534 24.897 C 175.444 25.091 175.359 25.287 175.275 25.484 Z M 115.103 44.512 C 113.287 41.391 112.38 37.992 112.38 34.317 C 112.355 30.736 113.295 27.214 115.103 24.122 C 116.918 21 119.386 18.532 122.508 16.717 C 125.63 14.902 129.028 13.994 132.703 13.994 C 136.284 13.969 139.806 14.909 142.898 16.717 C 146.019 18.532 148.487 21 150.303 24.122 C 152.118 27.244 153.027 30.642 153.027 34.317 C 153.051 37.898 152.11 41.42 150.303 44.512 C 148.487 47.633 146.019 50.102 142.898 51.918 C 139.776 53.733 136.378 54.641 132.703 54.641 C 129.121 54.666 125.6 53.725 122.508 51.918 C 119.386 50.102 116.918 47.633 115.103 44.512 Z M 178.597 44.512 C 176.781 41.391 175.874 37.992 175.874 34.317 C 175.848 30.736 176.789 27.214 178.597 24.122 C 180.412 21 182.88 18.532 186.002 16.717 C 189.123 14.902 192.521 13.994 196.196 13.994 C 199.777 13.969 203.299 14.909 206.391 16.717 C 209.513 18.532 211.981 21 213.797 24.122 C 215.612 27.244 216.52 30.642 216.52 34.317 C 216.545 37.898 215.604 41.42 213.797 44.512 C 211.981 47.633 209.513 50.102 206.391 51.918 C 203.269 53.733 199.871 54.641 196.196 54.641 C 192.615 54.666 189.094 53.725 186.002 51.918 C 182.88 50.102 180.412 47.633 178.597 44.512 Z M 103.015 6.821 L 88.47 61.813 L 85.979 61.813 L 100.525 6.821 L 103.015 6.821 Z M 68.28 6.821 L 53.735 61.813 L 51.277 61.813 L 65.822 6.821 L 68.28 6.821 Z M 98.034 6.821 L 83.489 61.813 L 81.031 61.813 L 95.576 6.821 L 98.034 6.821 Z M 63.332 6.821 L 48.786 61.813 L 46.329 61.813 L 60.907 6.821 L 63.332 6.821 Z M 93.086 6.821 L 78.541 61.813 L 76.084 61.813 L 90.661 6.821 L 93.086 6.821 Z M 117.179 25.317 C 115.578 28.045 114.746 31.155 114.771 34.317 C 114.746 37.479 115.578 40.588 117.179 43.316 C 118.784 46.062 120.958 48.236 123.703 49.842 C 126.431 51.442 129.54 52.274 132.703 52.249 C 135.865 52.274 138.974 51.442 141.702 49.842 C 144.448 48.236 146.622 46.062 148.227 43.316 C 149.828 40.588 150.66 37.479 150.635 34.317 C 150.66 31.155 149.828 28.045 148.227 25.317 C 146.622 22.573 144.448 20.398 141.702 18.793 C 138.974 17.192 135.865 16.36 132.703 16.385 C 129.54 16.36 126.431 17.192 123.703 18.793 C 120.958 20.398 118.784 22.573 117.179 25.317 Z M 180.672 25.317 C 179.071 28.045 178.239 31.155 178.264 34.317 C 178.239 37.479 179.071 40.588 180.672 43.316 C 182.277 46.062 184.452 48.236 187.197 49.842 C 189.925 51.442 193.034 52.274 196.196 52.249 C 199.359 52.274 202.468 51.442 205.196 49.842 C 207.942 48.236 210.116 46.062 211.721 43.316 C 213.322 40.588 214.154 37.479 214.129 34.317 C 214.154 31.155 213.322 28.045 211.721 25.317 C 210.116 22.573 207.942 20.398 205.196 18.793 C 202.468 17.192 199.359 16.36 196.196 16.385 C 193.034 16.36 189.925 17.192 187.197 18.793 C 184.452 20.398 182.277 22.573 180.672 25.317 Z M 117.161 34.317 C 117.155 36.389 117.573 38.44 118.39 40.344 C 118.403 40.374 118.416 40.404 118.43 40.435 C 119.205 42.252 120.319 43.906 121.712 45.309 C 121.8 45.398 121.89 45.484 121.98 45.571 C 123.349 46.863 124.94 47.9 126.675 48.63 C 128.579 49.447 130.631 49.865 132.703 49.859 C 134.775 49.865 136.826 49.447 138.73 48.63 C 138.76 48.617 138.79 48.604 138.82 48.592 C 140.638 47.815 142.292 46.702 143.694 45.309 C 143.783 45.221 143.87 45.131 143.957 45.041 C 145.249 43.671 146.285 42.081 147.015 40.344 C 147.832 38.44 148.251 36.389 148.245 34.317 C 148.25 32.246 147.832 30.194 147.015 28.29 C 147.003 28.26 146.99 28.23 146.977 28.2 C 146.201 26.382 145.087 24.728 143.694 23.326 C 143.606 23.237 143.517 23.149 143.426 23.063 C 142.057 21.77 140.466 20.734 138.73 20.004 C 136.826 19.187 134.775 18.769 132.703 18.776 C 130.631 18.769 128.579 19.187 126.675 20.004 C 126.646 20.017 126.616 20.03 126.586 20.044 C 124.768 20.819 123.114 21.933 121.712 23.326 C 121.623 23.414 121.535 23.504 121.449 23.595 C 120.156 24.964 119.12 26.555 118.39 28.29 C 117.573 30.194 117.155 32.246 117.161 34.317 Z M 180.655 34.317 C 180.649 36.389 181.067 38.44 181.884 40.344 C 181.896 40.374 181.909 40.404 181.923 40.435 C 182.698 42.252 183.812 43.906 185.205 45.309 C 185.293 45.398 185.383 45.484 185.473 45.571 C 186.842 46.863 188.433 47.9 190.169 48.63 C 192.073 49.447 194.125 49.865 196.196 49.859 C 198.269 49.865 200.32 49.447 202.224 48.63 C 202.253 48.617 202.283 48.604 202.314 48.592 C 204.132 47.815 205.786 46.702 207.188 45.309 C 207.277 45.221 207.364 45.131 207.451 45.041 C 208.743 43.671 209.779 42.081 210.509 40.344 C 211.326 38.44 211.744 36.389 211.738 34.317 C 211.744 32.246 211.326 30.194 210.509 28.29 C 210.496 28.26 210.483 28.23 210.47 28.2 C 209.694 26.382 208.581 24.728 207.188 23.326 C 207.1 23.237 207.01 23.149 206.92 23.063 C 205.55 21.77 203.96 20.734 202.224 20.004 C 200.319 19.187 198.269 18.769 196.196 18.776 C 194.125 18.769 192.073 19.187 190.169 20.004 C 190.14 20.017 190.11 20.03 190.08 20.044 C 188.261 20.819 186.607 21.933 185.205 23.326 C 185.116 23.414 185.029 23.504 184.943 23.595 C 183.65 24.964 182.613 26.555 181.884 28.29 C 181.067 30.194 180.649 32.246 180.655 34.317 Z M 34.241 6.821 L 44.271 44.91 L 43.142 49.626 L 31.783 6.821 L 34.241 6.821 Z M 123.405 25.019 C 120.934 27.412 119.544 30.708 119.554 34.148 C 119.553 34.204 119.553 34.261 119.553 34.317 C 119.498 37.756 120.846 41.069 123.285 43.495 C 123.324 43.536 123.364 43.576 123.405 43.616 C 125.798 46.086 129.094 47.477 132.534 47.467 C 132.59 47.467 132.647 47.467 132.703 47.467 C 136.142 47.522 139.455 46.175 141.881 43.734 C 141.921 43.695 141.962 43.656 142.002 43.616 C 144.472 41.223 145.862 37.927 145.852 34.487 C 145.853 34.43 145.853 34.374 145.853 34.317 C 145.908 30.877 144.56 27.565 142.12 25.14 C 142.081 25.1 142.041 25.059 142.002 25.019 C 139.608 22.548 136.312 21.158 132.873 21.168 C 132.816 21.168 132.76 21.167 132.703 21.167 C 129.263 21.112 125.951 22.46 123.526 24.899 C 123.485 24.939 123.445 24.979 123.405 25.019 Z M 186.898 25.019 C 184.427 27.412 183.037 30.708 183.047 34.148 C 183.046 34.204 183.046 34.261 183.046 34.317 C 182.991 37.756 184.339 41.07 186.779 43.495 C 186.818 43.536 186.858 43.576 186.898 43.616 C 189.291 46.086 192.587 47.477 196.027 47.467 C 196.083 47.467 196.14 47.467 196.196 47.467 C 199.636 47.522 202.949 46.174 205.374 43.734 C 205.414 43.695 205.455 43.656 205.495 43.616 C 207.965 41.223 209.356 37.927 209.346 34.487 C 209.346 34.43 209.346 34.374 209.347 34.317 C 209.402 30.877 208.054 27.565 205.614 25.14 C 205.575 25.1 205.535 25.059 205.495 25.019 C 203.102 22.548 199.806 21.158 196.367 21.168 C 196.31 21.168 196.254 21.167 196.196 21.167 C 192.757 21.112 189.444 22.46 187.019 24.899 C 186.978 24.939 186.938 24.979 186.898 25.019 Z M 39.156 6.821 L 46.761 35.712 L 45.532 40.295 L 36.732 6.821 L 39.156 6.821 Z M 72.065 11.404 L 70.771 16.186 L 77.279 38.568 L 78.508 33.853 L 72.065 11.404 Z M 67.085 30.167 L 65.856 34.848 L 72.298 57.297 L 73.56 52.549 L 67.085 30.167 Z M 69.575 20.769 L 68.313 25.484 L 74.788 47.866 L 76.051 43.184 L 69.575 20.769 Z M 44.138 6.821 L 49.251 26.181 L 47.99 30.831 L 41.647 6.821 L 44.138 6.821 Z" vector-effect="non-scaling-stroke" style="filter: url(#drop-shadow-filter-0); stroke-width: 0px; fill: rgb(48, 218, 195);"/>
  </g>
</svg>