<?xml version="1.0" encoding="utf-8"?>
<svg width="339.649" height="87.891" viewBox="0 0 478.146 81.656" xmlns="http://www.w3.org/2000/svg" xmlns:bx="https://boxy-svg.com">
  <defs>
    <filter id="drop-shadow-filter-0" x="-500%" y="-500%" width="1000%" height="1000%" bx:preset="drop-shadow 1 7 7 0 0.3 rgba(255,0,72,1)">
      <feGaussianBlur in="SourceAlpha" stdDeviation="0"/>
      <feOffset dx="7" dy="7"/>
      <feComponentTransfer result="offsetblur">
        <feFuncA id="spread-ctrl" type="linear" slope="0.6"/>
      </feComponentTransfer>
      <feFlood flood-color="rgba(255,0,72,1)"/>
      <feComposite in2="offsetblur" operator="in"/>
      <feMerge>
        <feMergeNode/>
        <feMergeNode in="SourceGraphic"/>
      </feMerge>
    </filter>
  </defs>
  <g id="svgGroup" stroke-linecap="round" fill-rule="evenodd" font-size="9pt" stroke="#fff" stroke-width="0.1mm" fill="#fff" style="stroke: rgb(69, 203, 133); stroke-width: 0.1mm; fill: rgb(87, 226, 229); filter: url(#drop-shadow-filter-0);">
    <path d="M 428.613 29.884 L 428.613 73.829 L 425.098 73.829 L 425.098 29.884 Q 425.098 24.562 422.729 19.679 A 26.639 26.639 0 0 0 416.357 11.256 A 29.651 29.651 0 0 0 409.188 6.609 A 35.23 35.23 0 0 0 406.836 5.616 Q 401.318 3.517 395.313 3.517 A 37.931 37.931 0 0 0 386.056 4.61 A 32.366 32.366 0 0 0 380.347 6.617 A 25.566 25.566 0 0 0 369.58 15.797 A 24.211 24.211 0 0 0 365.612 27.61 A 30.093 30.093 0 0 0 365.527 29.884 L 365.527 73.829 L 362.012 73.829 L 362.012 29.884 Q 362.012 23.146 364.648 17.482 A 27.495 27.495 0 0 1 370.635 9.053 A 26.366 26.366 0 0 1 371.802 8.009 A 32.189 32.189 0 0 1 380.445 2.836 A 37.618 37.618 0 0 1 382.397 2.101 Q 388.477 0.001 395.313 0.001 A 40.355 40.355 0 0 1 406.575 1.515 A 33.546 33.546 0 0 1 416.309 6.105 Q 425.195 0.001 437.305 0.001 A 39.706 39.706 0 0 1 448.688 1.609 A 37.133 37.133 0 0 1 450.22 2.101 A 34.223 34.223 0 0 1 457.996 5.898 A 30.562 30.562 0 0 1 460.815 8.009 A 27.137 27.137 0 0 1 467.802 17.129 A 31.177 31.177 0 0 1 467.969 17.482 A 28.556 28.556 0 0 1 470.564 28.216 A 33.456 33.456 0 0 1 470.605 29.884 L 470.605 73.829 L 467.09 73.829 L 467.09 29.884 A 26.494 26.494 0 0 0 465.808 21.525 A 23.457 23.457 0 0 0 463.037 15.846 Q 458.984 9.767 452.271 6.642 A 33.659 33.659 0 0 0 441.088 3.688 A 40.931 40.931 0 0 0 437.305 3.517 A 37.027 37.027 0 0 0 427.612 4.738 A 30.382 30.382 0 0 0 419.238 8.4 Q 420.098 9.147 421.101 10.238 A 38.454 38.454 0 0 1 421.729 10.939 A 28.526 28.526 0 0 1 432.447 7.346 A 36.593 36.593 0 0 1 437.305 7.032 Q 442.725 7.032 447.51 8.595 A 27.627 27.627 0 0 1 453.265 11.203 A 24.101 24.101 0 0 1 455.859 13.014 A 20.236 20.236 0 0 1 461.434 20.081 A 23.279 23.279 0 0 1 461.499 20.216 A 21.433 21.433 0 0 1 463.489 27.762 A 25.874 25.874 0 0 1 463.574 29.884 L 463.574 73.829 L 460.059 73.829 L 460.059 29.884 A 20.386 20.386 0 0 0 459.447 24.807 A 17.409 17.409 0 0 0 458.276 21.583 A 16.609 16.609 0 0 0 453.369 15.48 A 22.322 22.322 0 0 0 447.646 12.333 A 26.067 26.067 0 0 0 446.143 11.818 A 28.709 28.709 0 0 0 439.49 10.618 A 33.76 33.76 0 0 0 437.305 10.548 A 31.942 31.942 0 0 0 430.7 11.2 A 24.009 24.009 0 0 0 423.877 13.722 A 38.222 38.222 0 0 1 424.948 15.497 A 47.446 47.446 0 0 1 425.635 16.749 A 20.177 20.177 0 0 1 431.496 14.615 Q 433.996 14.102 436.868 14.066 A 34.791 34.791 0 0 1 437.305 14.064 Q 442.725 14.064 446.997 15.748 Q 451.27 17.433 453.906 21.095 A 13.928 13.928 0 0 1 456.398 27.561 A 18.121 18.121 0 0 1 456.543 29.884 L 456.543 73.829 L 453.027 73.829 L 453.027 29.884 A 13.926 13.926 0 0 0 452.557 26.154 A 9.702 9.702 0 0 0 448.657 20.631 A 16.021 16.021 0 0 0 443.367 18.272 Q 441.188 17.72 438.632 17.608 A 30.269 30.269 0 0 0 437.305 17.579 Q 432.584 17.579 429.187 18.875 A 14.215 14.215 0 0 0 427.002 19.923 Q 427.637 21.779 427.979 23.439 A 9.755 9.755 0 0 1 430.799 21.988 Q 433.447 21.095 437.305 21.095 A 24.969 24.969 0 0 1 441.684 21.444 Q 449.336 22.814 449.508 29.571 A 12.321 12.321 0 0 1 449.512 29.884 L 449.512 73.829 L 445.996 73.829 L 445.996 29.884 Q 445.996 28.626 445.63 27.695 A 4.208 4.208 0 0 0 445.532 27.467 A 4.66 4.66 0 0 0 445.075 26.68 A 3.414 3.414 0 0 0 444.336 25.929 Q 443.604 25.392 442.407 25.074 Q 441.211 24.757 440.088 24.684 A 30.164 30.164 0 0 0 439.175 24.639 Q 438.76 24.625 438.293 24.618 A 64.343 64.343 0 0 0 437.305 24.611 Q 435.654 24.611 434.535 24.683 A 24.517 24.517 0 0 0 434.521 24.684 Q 433.398 24.757 432.202 25.074 Q 431.006 25.392 430.273 25.929 A 3.44 3.44 0 0 0 429.498 26.73 A 4.715 4.715 0 0 0 429.077 27.467 A 4.745 4.745 0 0 0 428.729 28.572 Q 428.631 29.082 428.616 29.665 A 8.354 8.354 0 0 0 428.613 29.884 Z M 237.305 47.413 L 237.305 56.251 L 270.947 56.251 L 270.947 59.767 L 237.305 59.767 L 237.305 63.282 L 270.947 63.282 L 270.947 66.798 L 237.305 66.798 L 237.305 70.314 L 270.947 70.314 L 270.947 73.829 L 233.789 73.829 L 233.789 3.517 L 270.947 3.517 L 270.947 7.032 L 237.305 7.032 L 237.305 10.548 L 270.947 10.548 L 270.947 14.064 L 237.305 14.064 L 237.305 17.579 L 270.947 17.579 L 270.947 21.095 L 237.305 21.095 L 237.305 29.835 L 268.994 29.835 L 268.994 33.351 L 237.305 33.351 L 237.305 36.866 L 268.994 36.866 L 268.994 40.382 L 237.305 40.382 L 237.305 43.898 L 268.994 43.898 L 268.994 47.413 L 237.305 47.413 Z M 156.104 57.814 L 156.104 54.298 L 177.295 54.298 Q 183.789 54.298 189.307 51.173 Q 194.824 48.048 198.12 42.482 Q 201.416 36.915 201.416 30.177 A 21.561 21.561 0 0 0 198.145 18.727 A 24.206 24.206 0 0 0 189.282 10.206 A 23.89 23.89 0 0 0 177.295 7.032 L 133.057 7.032 L 133.057 73.829 L 129.541 73.829 L 129.541 3.517 L 177.295 3.517 A 26.839 26.839 0 0 1 187.915 5.69 A 29.412 29.412 0 0 1 194.976 9.898 A 26.966 26.966 0 0 1 196.729 11.451 Q 200.439 15.04 202.686 19.972 A 24.364 24.364 0 0 1 204.932 30.177 A 31.531 31.531 0 0 1 203.97 38.12 A 25.531 25.531 0 0 1 201.025 45.094 A 25.625 25.625 0 0 1 190.527 54.786 L 197.9 73.829 L 194.141 73.829 L 187.158 56.202 A 33.624 33.624 0 0 1 185.921 56.587 Q 185.283 56.772 184.568 56.958 A 58.595 58.595 0 0 1 184.082 57.081 L 190.674 73.829 L 186.914 73.829 L 180.469 57.667 A 31.906 31.906 0 0 1 178.116 57.805 A 36.406 36.406 0 0 1 177.295 57.814 L 183.496 73.829 L 179.785 73.829 L 173.633 57.814 L 170.459 57.814 L 176.367 73.829 L 172.656 73.829 L 166.699 57.814 L 156.104 57.814 Z M 353.906 39.161 L 353.906 73.829 L 350.391 73.829 L 350.391 39.161 A 36.571 36.571 0 0 0 348.798 28.218 A 32.27 32.27 0 0 0 345.752 21.363 Q 341.113 13.527 333.105 9.254 A 36.646 36.646 0 0 0 317.822 5.057 A 43.918 43.918 0 0 0 315.234 4.982 A 34.035 34.035 0 0 0 297.9 9.523 Q 290.039 14.064 285.547 21.803 A 33.017 33.017 0 0 0 281.055 38.673 A 33.615 33.615 0 0 0 282.983 50.074 A 32.229 32.229 0 0 0 286.305 56.847 A 28.472 28.472 0 0 0 288.257 59.498 A 36.103 36.103 0 0 0 295.972 66.456 A 34.716 34.716 0 0 0 305.396 70.9 A 35.639 35.639 0 0 0 315.674 72.413 A 27.7 27.7 0 0 0 326.611 70.216 L 326.611 73.829 Q 321.191 75.734 315.479 75.734 A 40.183 40.183 0 0 1 303.979 74.073 Q 298.389 72.413 293.628 69.166 Q 288.867 65.919 285.254 61.5 Q 281.641 57.081 279.59 51.173 A 37.834 37.834 0 0 1 277.539 38.725 A 42.476 42.476 0 0 1 277.539 38.673 A 37.166 37.166 0 0 1 280.396 24.244 A 36.872 36.872 0 0 1 287.597 13.012 A 35.403 35.403 0 0 1 288.208 12.379 A 35.76 35.76 0 0 1 298.066 5.393 A 41.854 41.854 0 0 1 300.22 4.42 Q 307.275 1.466 315.234 1.466 A 42.623 42.623 0 0 1 328.615 3.541 A 40.141 40.141 0 0 1 330.469 4.2 A 38.269 38.269 0 0 1 340.063 9.497 A 35.033 35.033 0 0 1 342.773 11.793 A 33.853 33.853 0 0 1 350.123 21.943 A 39.697 39.697 0 0 1 350.928 23.732 Q 353.906 30.812 353.906 39.161 Z M 346.875 39.161 L 346.875 73.829 L 343.359 73.829 L 343.359 39.161 A 29.957 29.957 0 0 0 342.257 30.897 A 25.52 25.52 0 0 0 339.673 24.879 Q 335.986 18.654 329.59 15.333 A 29.744 29.744 0 0 0 318.224 12.135 A 36.148 36.148 0 0 0 315.234 12.013 Q 307.666 12.013 301.416 15.602 A 26.152 26.152 0 0 0 291.626 25.294 Q 288.086 31.398 288.086 38.673 Q 288.086 44.923 290.381 50.074 A 25.097 25.097 0 0 0 293.767 55.673 A 21.823 21.823 0 0 0 296.558 58.546 Q 300.439 61.866 305.396 63.697 A 29.699 29.699 0 0 0 315.771 65.529 A 27.138 27.138 0 0 0 326.611 63.234 L 326.611 66.798 A 32.688 32.688 0 0 1 319.56 68.626 A 28.26 28.26 0 0 1 315.674 68.898 A 32.253 32.253 0 0 1 300.146 65.089 A 29.318 29.318 0 0 1 288.818 54.298 A 29.358 29.358 0 0 1 284.574 39.212 A 34.855 34.855 0 0 1 284.57 38.673 A 29.627 29.627 0 0 1 286.938 26.954 A 30.24 30.24 0 0 1 292.859 17.848 A 29.001 29.001 0 0 1 293.359 17.335 A 29.542 29.542 0 0 1 301.68 11.534 A 34.373 34.373 0 0 1 303.125 10.89 A 31.03 31.03 0 0 1 315.234 8.497 Q 324.17 8.497 331.372 12.306 A 28.311 28.311 0 0 1 342.725 23.146 A 30.047 30.047 0 0 1 346.752 36.131 A 36.861 36.861 0 0 1 346.875 39.161 Z M 156.104 50.782 L 156.104 47.267 L 177.295 47.267 A 16.879 16.879 0 0 0 189.355 42.482 A 15.974 15.974 0 0 0 194.351 31.392 A 21.523 21.523 0 0 0 194.385 30.177 A 14.675 14.675 0 0 0 190.459 20.161 A 20.066 20.066 0 0 0 189.258 18.922 Q 184.131 14.064 177.295 14.064 L 140.088 14.064 L 140.088 73.829 L 136.572 73.829 L 136.572 10.548 L 177.295 10.548 A 20.233 20.233 0 0 1 191.748 16.432 Q 197.9 22.316 197.9 30.177 A 20.866 20.866 0 0 1 196.333 38.36 A 19.718 19.718 0 0 1 191.821 44.874 A 20.114 20.114 0 0 1 177.295 50.782 L 156.104 50.782 Z M 34.717 33.351 L 29.15 33.351 A 35.176 35.176 0 0 1 24.305 33.047 Q 18.815 32.279 16.527 29.57 A 7.275 7.275 0 0 1 14.893 24.708 Q 14.893 20.962 18.956 18.496 A 14.658 14.658 0 0 1 19.312 18.287 A 15.566 15.566 0 0 1 22.779 16.882 Q 26.148 15.929 30.956 15.795 A 57.883 57.883 0 0 1 32.568 15.773 Q 38.77 15.773 44.092 17.213 Q 49.133 18.578 52.51 21.059 A 18.375 18.375 0 0 1 52.881 21.339 L 50.098 23.488 Q 43.994 19.288 32.568 19.288 A 57.635 57.635 0 0 0 29.15 19.383 Q 25.559 19.597 23.218 20.296 A 11.716 11.716 0 0 0 21.826 20.802 Q 20.126 21.555 19.271 22.526 A 3.224 3.224 0 0 0 18.408 24.708 Q 18.408 27.33 20.532 28.522 A 5.424 5.424 0 0 0 20.801 28.663 A 8.133 8.133 0 0 0 22.376 29.217 Q 24.039 29.637 26.571 29.772 A 48.759 48.759 0 0 0 29.15 29.835 L 34.717 29.835 A 47.965 47.965 0 0 1 42.777 30.469 Q 47.145 31.215 50.633 32.839 A 22.726 22.726 0 0 1 55.664 36.012 A 20.097 20.097 0 0 1 62.972 50.636 A 27.503 27.503 0 0 1 63.037 52.54 Q 63.037 57.277 60.938 61.427 A 21.729 21.729 0 0 1 55.919 67.873 A 25.543 25.543 0 0 1 54.907 68.727 A 24.652 24.652 0 0 1 50.433 71.547 Q 48.238 72.636 45.627 73.473 A 41.973 41.973 0 0 1 44.873 73.707 A 42.786 42.786 0 0 1 37.143 75.236 A 54.652 54.652 0 0 1 31.299 75.538 A 55.011 55.011 0 0 1 18.116 73.998 A 49.363 49.363 0 0 1 13.672 72.682 A 42.479 42.479 0 0 1 5.833 69.069 A 33.934 33.934 0 0 1 0 64.698 L 2.832 62.599 A 31.445 31.445 0 0 0 10.03 67.423 A 40.644 40.644 0 0 0 15.283 69.557 A 49.708 49.708 0 0 0 28.524 71.956 A 57.465 57.465 0 0 0 31.299 72.023 Q 40.607 72.023 47.092 69.248 A 24.244 24.244 0 0 0 52.002 66.456 A 20.732 20.732 0 0 0 56.426 62.109 A 15.746 15.746 0 0 0 59.521 52.54 A 19.479 19.479 0 0 0 58.459 45.967 A 16.542 16.542 0 0 0 53.076 38.527 Q 47.953 34.412 39.373 33.568 A 47.621 47.621 0 0 0 34.717 33.351 Z M 34.717 47.413 L 29.15 47.413 A 47.965 47.965 0 0 1 21.091 46.78 Q 16.722 46.034 13.234 44.41 A 22.726 22.726 0 0 1 8.203 41.237 A 20.097 20.097 0 0 1 0.895 26.612 A 27.503 27.503 0 0 1 0.83 24.708 Q 0.83 19.972 2.93 15.821 A 21.729 21.729 0 0 1 7.948 9.376 A 25.543 25.543 0 0 1 8.96 8.522 A 24.652 24.652 0 0 1 13.434 5.702 Q 15.629 4.612 18.24 3.775 A 41.973 41.973 0 0 1 18.994 3.541 A 42.786 42.786 0 0 1 26.724 2.012 A 54.652 54.652 0 0 1 32.568 1.71 A 55.011 55.011 0 0 1 45.751 3.251 A 49.363 49.363 0 0 1 50.195 4.567 A 42.479 42.479 0 0 1 58.034 8.179 A 33.934 33.934 0 0 1 63.867 12.55 L 61.035 14.65 A 31.445 31.445 0 0 0 53.837 9.826 A 40.644 40.644 0 0 0 48.584 7.692 A 49.708 49.708 0 0 0 35.343 5.292 A 57.465 57.465 0 0 0 32.568 5.226 Q 23.26 5.226 16.775 8.001 A 24.244 24.244 0 0 0 11.865 10.792 A 20.732 20.732 0 0 0 7.441 15.14 A 15.746 15.746 0 0 0 4.346 24.708 A 19.479 19.479 0 0 0 5.408 31.281 A 16.542 16.542 0 0 0 10.791 38.722 Q 15.915 42.836 24.494 43.68 A 47.621 47.621 0 0 0 29.15 43.898 L 34.521 43.898 A 36.139 36.139 0 0 1 39.433 44.202 Q 44.89 44.954 47.226 47.574 A 7.183 7.183 0 0 1 48.975 52.54 Q 48.975 56.286 44.911 58.752 A 14.658 14.658 0 0 1 44.556 58.961 A 15.566 15.566 0 0 1 41.088 60.367 Q 37.719 61.32 32.911 61.454 A 57.883 57.883 0 0 1 31.299 61.476 Q 25.098 61.476 19.775 60.035 Q 14.734 58.671 11.357 56.189 A 18.375 18.375 0 0 1 10.986 55.909 L 13.77 53.761 Q 19.873 57.96 31.299 57.96 A 57.635 57.635 0 0 0 34.717 57.866 Q 38.308 57.651 40.649 56.953 A 11.716 11.716 0 0 0 42.041 56.446 Q 43.742 55.693 44.596 54.723 A 3.224 3.224 0 0 0 45.459 52.54 Q 45.459 49.918 43.335 48.726 A 5.424 5.424 0 0 0 43.066 48.585 A 8.133 8.133 0 0 0 41.491 48.032 Q 39.829 47.611 37.296 47.477 A 48.759 48.759 0 0 0 34.717 47.413 Z M 34.717 40.382 L 29.15 40.382 A 40.518 40.518 0 0 1 23.204 39.974 Q 20.188 39.526 17.732 38.584 A 17.617 17.617 0 0 1 13.379 36.207 A 13.347 13.347 0 0 1 7.948 26.49 A 17.99 17.99 0 0 1 7.861 24.708 A 12.772 12.772 0 0 1 12.066 15.177 A 19.536 19.536 0 0 1 14.355 13.307 A 22.328 22.328 0 0 1 20.765 10.267 Q 25.793 8.741 32.568 8.741 A 50.145 50.145 0 0 1 42.814 9.757 A 43.765 43.765 0 0 1 47.144 10.89 A 36.331 36.331 0 0 1 53.162 13.384 A 27.7 27.7 0 0 1 58.398 16.945 L 55.664 19.142 A 25.094 25.094 0 0 0 50.551 15.944 A 34.27 34.27 0 0 0 45.605 14.064 Q 39.551 12.257 32.568 12.257 Q 26.071 12.257 21.506 13.655 A 18.671 18.671 0 0 0 16.821 15.773 A 14.461 14.461 0 0 0 13.95 18.156 A 9.435 9.435 0 0 0 11.377 24.708 A 12.211 12.211 0 0 0 12.005 28.722 A 10.033 10.033 0 0 0 15.845 33.717 Q 20.313 36.866 29.15 36.866 L 34.521 36.866 Q 41.347 36.866 46.08 38.664 A 17.657 17.657 0 0 1 50.464 41.041 Q 56.006 45.216 56.006 52.54 A 12.772 12.772 0 0 1 51.801 62.072 A 19.536 19.536 0 0 1 49.512 63.942 A 22.328 22.328 0 0 1 43.102 66.981 Q 38.074 68.507 31.299 68.507 A 50.145 50.145 0 0 1 21.053 67.492 A 43.765 43.765 0 0 1 16.724 66.359 A 36.331 36.331 0 0 1 10.705 63.865 A 27.7 27.7 0 0 1 5.469 60.304 L 8.203 58.107 A 25.094 25.094 0 0 0 13.316 61.304 A 34.27 34.27 0 0 0 18.262 63.185 Q 24.316 64.991 31.299 64.991 Q 37.796 64.991 42.361 63.593 A 18.671 18.671 0 0 0 47.046 61.476 A 14.461 14.461 0 0 0 49.917 59.093 A 9.435 9.435 0 0 0 52.49 52.54 A 12.211 12.211 0 0 0 51.862 48.527 A 10.033 10.033 0 0 0 48.022 43.531 Q 43.555 40.382 34.717 40.382 Z M 421.582 29.884 L 421.582 73.829 L 418.066 73.829 L 418.066 29.884 A 20.386 20.386 0 0 0 417.455 24.807 A 17.409 17.409 0 0 0 416.284 21.583 A 16.609 16.609 0 0 0 411.377 15.48 A 22.322 22.322 0 0 0 405.654 12.333 A 26.067 26.067 0 0 0 404.15 11.818 A 28.709 28.709 0 0 0 397.498 10.618 A 33.76 33.76 0 0 0 395.313 10.548 A 31.194 31.194 0 0 0 389.134 11.141 A 27.127 27.127 0 0 0 386.475 11.818 Q 382.373 13.087 379.248 15.48 Q 376.123 17.872 374.341 21.583 A 18.177 18.177 0 0 0 372.656 27.781 A 22.167 22.167 0 0 0 372.559 29.884 L 372.559 73.829 L 369.043 73.829 L 369.043 29.884 A 23.611 23.611 0 0 1 369.814 23.76 A 20.498 20.498 0 0 1 371.118 20.216 A 20.392 20.392 0 0 1 376.103 13.563 A 19.808 19.808 0 0 1 376.758 13.014 A 25.363 25.363 0 0 1 383.072 9.34 A 30.03 30.03 0 0 1 385.107 8.595 A 32.194 32.194 0 0 1 393.967 7.057 A 36.802 36.802 0 0 1 395.312 7.032 Q 400.732 7.032 405.518 8.595 A 27.627 27.627 0 0 1 411.272 11.203 A 24.101 24.101 0 0 1 413.867 13.014 A 20.236 20.236 0 0 1 419.442 20.081 A 23.279 23.279 0 0 1 419.507 20.216 A 21.433 21.433 0 0 1 421.496 27.762 A 25.874 25.874 0 0 1 421.582 29.884 Z M 339.844 39.161 L 339.844 73.829 L 336.328 73.829 L 336.328 39.161 A 23.343 23.343 0 0 0 335.497 32.772 A 17.567 17.567 0 0 0 330.42 24.488 A 20.308 20.308 0 0 0 319.398 19.343 A 27.994 27.994 0 0 0 315.234 19.044 A 21.242 21.242 0 0 0 307.575 20.384 A 19.198 19.198 0 0 0 300.879 24.757 A 18.829 18.829 0 0 0 295.119 38.417 A 23.191 23.191 0 0 0 295.117 38.673 A 24.575 24.575 0 0 0 295.606 43.675 A 19.789 19.789 0 0 0 296.851 47.609 A 18.086 18.086 0 0 0 299.044 51.37 A 15.016 15.016 0 0 0 301.563 53.956 Q 304.541 56.349 308.228 57.594 Q 311.914 58.839 316.016 58.839 A 22.849 22.849 0 0 0 326.611 56.251 L 326.611 59.962 A 27.878 27.878 0 0 1 317.81 62.094 A 26.193 26.193 0 0 1 315.967 62.159 Q 311.133 62.159 306.787 60.67 A 24.248 24.248 0 0 1 299.023 56.324 A 19.016 19.016 0 0 1 294.693 51.078 A 23.334 23.334 0 0 1 293.604 48.903 A 23.788 23.788 0 0 1 291.778 41.939 A 29.507 29.507 0 0 1 291.602 38.673 A 22.205 22.205 0 0 1 298.202 22.503 A 26.804 26.804 0 0 1 298.413 22.291 A 22.886 22.886 0 0 1 314.922 15.53 A 29.416 29.416 0 0 1 315.234 15.529 A 29.651 29.651 0 0 1 322.633 16.42 A 24.933 24.933 0 0 1 327.832 18.385 Q 333.398 21.241 336.621 26.661 A 22.981 22.981 0 0 1 339.678 36.038 A 28.833 28.833 0 0 1 339.844 39.161 Z M 156.104 43.751 L 156.104 40.236 L 177.295 40.236 A 11.083 11.083 0 0 0 181.232 39.556 A 10.022 10.022 0 0 0 184.424 37.599 A 8.603 8.603 0 0 0 187.095 32.829 A 12.913 12.913 0 0 0 187.354 30.177 A 7.786 7.786 0 0 0 185.637 25.316 A 11.274 11.274 0 0 0 184.302 23.878 A 10.097 10.097 0 0 0 177.295 21.095 L 147.119 21.095 L 147.119 73.829 L 143.604 73.829 L 143.604 17.579 L 177.295 17.579 Q 182.715 17.579 186.792 21.388 A 13.856 13.856 0 0 1 189.413 24.642 A 11 11 0 0 1 190.869 30.177 A 15.724 15.724 0 0 1 190.29 34.556 A 11.914 11.914 0 0 1 186.914 40.065 Q 182.959 43.751 177.295 43.751 L 156.104 43.751 Z M 414.551 29.884 L 414.551 73.829 L 411.035 73.829 L 411.035 29.884 A 13.926 13.926 0 0 0 410.565 26.154 A 9.702 9.702 0 0 0 406.665 20.631 A 16.021 16.021 0 0 0 401.374 18.272 Q 399.195 17.72 396.64 17.608 A 30.269 30.269 0 0 0 395.313 17.579 A 26.124 26.124 0 0 0 390.537 17.991 Q 387.797 18.5 385.598 19.641 A 14.607 14.607 0 0 0 383.96 20.631 A 9.921 9.921 0 0 0 379.757 27.582 A 15.241 15.241 0 0 0 379.59 29.884 L 379.59 73.829 L 376.074 73.829 L 376.074 29.884 A 16.667 16.667 0 0 1 376.654 25.399 A 13.499 13.499 0 0 1 378.711 21.095 Q 381.348 17.433 385.62 15.748 A 23.824 23.824 0 0 1 391.253 14.321 A 30.933 30.933 0 0 1 395.313 14.064 Q 400.732 14.064 405.005 15.748 Q 409.277 17.433 411.914 21.095 A 13.928 13.928 0 0 1 414.406 27.561 A 18.121 18.121 0 0 1 414.551 29.884 Z M 329.297 73.829 L 329.297 39.161 A 16.238 16.238 0 0 0 328.841 35.199 A 11.009 11.009 0 0 0 325.439 29.493 Q 321.582 26.075 315.234 26.075 A 12.844 12.844 0 0 0 306.006 29.786 A 12.607 12.607 0 0 0 303.083 33.933 A 11.963 11.963 0 0 0 302.148 38.673 A 18.868 18.868 0 0 0 302.344 41.45 A 14.349 14.349 0 0 0 302.93 43.922 A 13.059 13.059 0 0 0 303.818 45.986 A 9.879 9.879 0 0 0 305.054 47.779 A 11.367 11.367 0 0 0 308.252 50.319 A 14.703 14.703 0 0 0 312.134 51.759 A 19.568 19.568 0 0 0 315.29 52.169 A 22.925 22.925 0 0 0 316.455 52.198 Q 322.021 52.198 326.611 49.464 L 326.611 52.98 Q 321.875 55.47 316.406 55.47 A 23.112 23.112 0 0 1 311.366 54.934 A 20.721 20.721 0 0 1 309.79 54.518 A 17.963 17.963 0 0 1 304.15 51.637 A 12.378 12.378 0 0 1 301.099 48.225 A 15.8 15.8 0 0 1 300.122 46.363 A 16.945 16.945 0 0 1 298.86 41.915 A 22.273 22.273 0 0 1 298.633 38.673 A 15.76 15.76 0 0 1 300.392 31.222 A 16.191 16.191 0 0 1 303.369 27.247 Q 308.105 22.56 315.234 22.56 A 22.788 22.788 0 0 1 320.813 23.207 A 16.371 16.371 0 0 1 327.954 26.979 A 14.522 14.522 0 0 1 332.499 35.434 A 21.21 21.21 0 0 1 332.812 39.161 L 332.813 73.829 L 329.297 73.829 Z M 407.52 29.884 L 407.52 73.829 L 404.004 73.829 L 404.004 29.884 Q 404.004 28.626 403.638 27.695 A 4.208 4.208 0 0 0 403.54 27.467 A 4.66 4.66 0 0 0 403.083 26.68 A 3.414 3.414 0 0 0 402.344 25.929 Q 401.611 25.392 400.415 25.074 Q 399.219 24.757 398.096 24.684 A 30.164 30.164 0 0 0 397.183 24.639 Q 396.768 24.625 396.301 24.618 A 64.343 64.343 0 0 0 395.313 24.611 Q 393.662 24.611 392.543 24.683 A 24.517 24.517 0 0 0 392.529 24.684 Q 391.406 24.757 390.21 25.074 Q 389.014 25.392 388.281 25.929 A 3.44 3.44 0 0 0 387.506 26.73 A 4.715 4.715 0 0 0 387.085 27.467 A 4.745 4.745 0 0 0 386.737 28.572 Q 386.639 29.082 386.624 29.665 A 8.354 8.354 0 0 0 386.621 29.884 L 386.621 73.829 L 383.105 73.829 L 383.105 29.884 Q 383.105 22.395 391.968 21.287 A 27.047 27.047 0 0 1 395.312 21.095 A 24.969 24.969 0 0 1 399.692 21.444 Q 407.344 22.814 407.516 29.571 A 12.321 12.321 0 0 1 407.52 29.884 Z M 154.15 28.126 L 154.15 73.829 L 150.635 73.829 L 150.635 24.611 L 177.295 24.611 A 7.584 7.584 0 0 1 179.749 24.994 A 6.569 6.569 0 0 1 181.934 26.246 A 5.841 5.841 0 0 1 183.158 27.669 A 4.79 4.79 0 0 1 183.838 30.177 A 9.419 9.419 0 0 1 183.514 32.766 Q 182.682 35.67 179.718 36.441 A 9.64 9.64 0 0 1 177.295 36.72 L 156.104 36.72 L 156.104 33.204 L 177.295 33.204 Q 179.697 33.204 180.193 31.298 A 4.46 4.46 0 0 0 180.322 30.177 A 1.479 1.479 0 0 0 179.954 29.206 Q 179.745 28.957 179.419 28.737 Q 178.516 28.126 177.295 28.126 L 154.15 28.126 Z M 230.273 3.517 L 230.273 73.829 L 226.758 73.829 L 226.758 3.517 L 230.273 3.517 Z M 223.242 3.517 L 223.242 73.829 L 219.727 73.829 L 219.727 3.517 L 223.242 3.517 Z M 216.211 3.517 L 216.211 73.829 L 212.695 73.829 L 212.695 3.517 L 216.211 3.517 Z M 121.826 7.032 L 69.092 7.032 L 69.092 3.517 L 121.826 3.517 L 121.826 7.032 Z M 121.826 14.064 L 69.092 14.064 L 69.092 10.548 L 121.826 10.548 L 121.826 14.064 Z M 121.826 21.095 L 69.092 21.095 L 69.092 17.579 L 121.826 17.579 L 121.826 21.095 Z M 83.154 73.829 L 83.154 22.999 L 86.67 22.999 L 86.67 73.829 L 83.154 73.829 Z M 104.248 73.829 L 104.248 22.999 L 107.764 22.999 L 107.764 73.829 L 104.248 73.829 Z M 97.217 73.829 L 97.217 22.999 L 100.732 22.999 L 100.732 73.829 L 97.217 73.829 Z M 90.186 73.829 L 90.186 22.999 L 93.701 22.999 L 93.701 73.829 L 90.186 73.829 Z" vector-effect="non-scaling-stroke"/>
  </g>
</svg>